<svg width="64" height="64" viewBox="0 0 64 64" fill="none" xmlns="http://www.w3.org/2000/svg">
<path d="M51.9997 42.6663V32.0157C51.9997 28.053 51.9997 26.069 51.3171 24.2557C50.6371 22.4423 49.3304 20.949 46.7224 17.9677L42.6664 13.333H21.3331L17.2797 17.9677C14.6664 20.949 13.3597 22.4423 12.6797 24.2557C11.9997 26.069 11.9971 28.053 11.9971 32.0157V42.6663C11.9971 50.2077 11.9971 53.981 14.3411 56.3223C16.6851 58.6637 20.4584 58.6663 27.9997 58.6663H35.9997C43.5411 58.6663 47.3144 58.6663 49.6557 56.3223C51.9997 53.981 51.9997 50.2077 51.9997 42.6663Z" stroke="white" stroke-width="2.5" stroke-linecap="round" stroke-linejoin="round"/>
<path d="M25.3333 41.821C25.3333 45.101 30.2773 47.7863 35.0213 46.2797C39.7653 44.773 39.0667 40.333 37.456 38.589C35.8453 36.845 33.48 37.1383 30.7733 36.9997C24.6907 36.6903 24.2613 30.8583 29.1867 28.5517C32.8 26.8583 37.4347 29.0317 37.968 31.9997M31.9227 25.333V27.941M31.9227 47.253V49.333M20 5.33301H44C45.2427 5.33301 45.864 5.33301 46.3547 5.53567C47.0068 5.8069 47.5247 6.32574 47.7947 6.97834C48 7.46901 48 8.09034 48 9.33301C48 10.5757 48 11.197 47.7973 11.6877C47.5261 12.3398 47.0073 12.8577 46.3547 13.1277C45.864 13.333 45.2427 13.333 44 13.333H20C18.7573 13.333 18.136 13.333 17.6453 13.1303C16.9932 12.8591 16.4754 12.3403 16.2053 11.6877C16 11.197 16 10.5757 16 9.33301C16 8.09034 16 7.46901 16.2027 6.97834C16.4739 6.32624 16.9927 5.80836 17.6453 5.53834C18.136 5.33301 18.7573 5.33301 20 5.33301Z" stroke="white" stroke-width="2.5" stroke-linecap="round" stroke-linejoin="round"/>
</svg>
