<svg width="90" height="90" viewBox="0 0 90 90" fill="none" xmlns="http://www.w3.org/2000/svg">
<path d="M15.9371 47.8875V37.575H8.94336L19.5446 20.625V30.9375H26.5384L15.9371 47.8875ZM27.9521 71.25C25.3546 71.25 23.1421 70.3375 21.3146 68.5125C19.4896 66.685 18.5771 64.4725 18.5771 61.875C18.5771 60.6 18.8771 59.4312 19.4771 58.3687C20.0771 57.3062 20.7359 56.2762 21.4534 55.2787L41.4784 22.5H28.5334L29.3321 18.75H66.7834L63.7459 31.875H71.5421L81.7084 45.435L78.4646 61.875H74.1371C74.1371 64.4725 73.2246 66.685 71.3996 68.5125C69.5746 70.34 67.3621 71.2525 64.7621 71.25C62.1621 71.2475 59.9509 70.335 58.1284 68.5125C56.3059 66.69 55.3934 64.4775 55.3909 61.875H37.3234C37.3234 64.4725 36.4096 66.685 34.5821 68.5125C32.7546 70.34 30.5421 71.2525 27.9446 71.25M28.1209 67.5C29.6634 67.5 30.9871 66.9487 32.0921 65.8462C33.1971 64.7412 33.7496 63.4175 33.7496 61.875C33.7496 60.3325 33.1984 59.0087 32.0959 57.9037C30.9934 56.7987 29.6696 56.2475 28.1246 56.25C26.5796 56.2525 25.2559 56.8037 24.1534 57.9037C23.0509 59.0087 22.4996 60.3325 22.4996 61.875C22.4996 63.4175 23.0509 64.7412 24.1534 65.8462C25.2584 66.9487 26.5784 67.5 28.1209 67.5ZM64.7621 67.5C66.3046 67.5 67.6271 66.9487 68.7296 65.8462C69.8321 64.7412 70.3834 63.4175 70.3834 61.875C70.3834 60.3325 69.8321 59.0087 68.7296 57.9037C67.6271 56.7987 66.3034 56.2475 64.7584 56.25C63.2134 56.2525 61.8909 56.8037 60.7909 57.9037C59.6859 59.0087 59.1334 60.3325 59.1334 61.875C59.1334 63.4175 59.6846 64.7412 60.7871 65.8462C61.8921 66.9487 63.2171 67.5 64.7621 67.5ZM59.5721 49.6875H77.0209L77.6809 46.35L69.6634 35.625H62.8459L59.5721 49.6875Z" fill="white"/>
</svg>
